<?xml version="1.0" standalone="no"?><!DOCTYPE svg PUBLIC "-//W3C//DTD SVG 1.1//EN" "http://www.w3.org/Graphics/SVG/1.1/DTD/svg11.dtd"><svg t="1607867872550" class="icon" viewBox="0 0 1171 1024" version="1.1" xmlns="http://www.w3.org/2000/svg" p-id="3785" xmlns:xlink="http://www.w3.org/1999/xlink" width="36.59375" height="32"><defs><style type="text/css"></style></defs><path d="M73.136369 584.742936 919.957929 584.742936 607.421857 896.961484C578.508625 925.8679 578.508625 972.664119 607.421857 1001.570534 636.335089 1030.47695 683.191156 1030.47695 712.104388 1001.570534L1148.630928 565.488243C1163.453229 550.669438 1170.571795 531.171017 1170.181755 511.721334L1170.181755 511.672588 1170.181755 511.623842C1170.571795 492.174166 1163.453229 472.626991 1148.630928 457.808187L712.104388 21.725895C683.191156-7.131775 636.335089-7.131775 607.421857 21.725895 578.508625 50.632311 578.508625 97.477283 607.421857 126.334953L919.957929 438.60224 73.136369 438.60224C32.716354 438.60224 0 471.310848 0 511.672588 0 551.985582 32.716354 584.742936 73.136369 584.742936L73.136369 584.742936 73.136369 584.742936Z" p-id="3786"></path></svg>