<svg width="73" height="69" viewBox="0 0 73 69" xmlns="http://www.w3.org/2000/svg"><g stroke-width="2" fill="none" fill-rule="evenodd"><path d="M41.645 19.142l14.306-15.2a2 2 0 01.972-.57l9.432-2.358A2 2 0 0168.78 3.44l-2.358 9.432a2 2 0 01-.57.971l-15.2 14.306a2 2 0 01-2.785-.042l-6.18-6.18a2 2 0 01-.042-2.785zM27.782 33.717l-6.325 6.849a1.893 1.893 0 01-2.73.054h0a1.97 1.97 0 00-2.785 0l-1.872 1.872a2 2 0 000 2.828l.14.142a2 2 0 01.043 2.785L8.029 54.86a1.051 1.051 0 01-1.509.022h0a1.084 1.084 0 00-1.532 0l-2.5 2.5a2 2 0 000 2.828l7.1 7.099a2 2 0 002.828 0l2.497-2.498a1.086 1.086 0 000-1.535h0a1.053 1.053 0 01.023-1.512l6.612-6.222a2 2 0 012.785.042l.144.144a2 2 0 002.828 0s0 0 0 0l1.871-1.871c.77-.77.77-2.019 0-2.789 0 0 0 0 0 0h0a1.823 1.823 0 01.105-2.675l7.465-6.38-8.964-8.296z" stroke="#fff" opacity=".798"/><path d="M58.822 62.478l-8.815-8.297-1.546 1.546h0a2 2 0 01-2.828 0l-1.852-1.85s0 0 0 0a2 2 0 010-2.83l1.405-1.404-38.038-35.8a2 2 0 01-.57-.971l-2.29-9.16a2 2 0 012.56-2.388L16.17 4.36a2 2 0 01.824.518l35.7 37.257 1.495-1.494s0 0 0 0a2 2 0 012.828 0l1.85 1.852a2 2 0 010 2.828l-1.593 1.594 8.373 8.738.123-.122s0 0 0 0a2 2 0 012.828 0l1.85 1.851a2 2 0 010 2.829l-7.098 7.098h0a2 2 0 01-2.828 0l-1.851-1.85s0 0 0 0a2 2 0 010-2.829l.15-.151z" stroke="#fff"/></g></svg>
