<svg id="blocked" xmlns="http://www.w3.org/2000/svg" width="60" height="60" viewBox="0 0 60 60">
  <path id="Path_574" data-name="Path 574" d="M0,0H28.18V3.75H0Z" transform="translate(32.453 52.386) rotate(-45)" fill="#fff"/>
  <path id="Path_575" data-name="Path 575" d="M27.25,43.5A16.25,16.25,0,1,1,43.5,27.25,16.269,16.269,0,0,1,27.25,43.5Zm0-28.75a12.5,12.5,0,1,0,12.5,12.5A12.514,12.514,0,0,0,27.25,14.75Z" transform="translate(16.5 16.5)" fill="#fff"/>
  <path id="Path_576" data-name="Path 576" d="M20.625,39.5h-15A5.633,5.633,0,0,1,0,33.875V12.625A5.633,5.633,0,0,1,5.625,7h28.75a5.543,5.543,0,0,1,4.188,1.892A1.875,1.875,0,0,1,35.74,11.36a1.808,1.808,0,0,0-1.365-.61H5.625A1.879,1.879,0,0,0,3.75,12.625v21.25A1.879,1.879,0,0,0,5.625,35.75h15a1.875,1.875,0,0,1,0,3.75Z" transform="translate(0 10.5)" fill="#fff"/>
  <path id="Path_577" data-name="Path 577" d="M26.125,21.25a1.876,1.876,0,0,1-1.875-1.875V12.5a8.75,8.75,0,1,0-17.5,0v6.875a1.875,1.875,0,0,1-3.75,0V12.5a12.5,12.5,0,1,1,25,0v6.875A1.876,1.876,0,0,1,26.125,21.25Z" transform="translate(4.5)" fill="#fff"/>
</svg>
