<svg id="inbox_1_" data-name="inbox (1)" xmlns="http://www.w3.org/2000/svg" width="76.928" height="60" viewBox="0 0 76.928 60">
  <path id="Path_481" data-name="Path 481" d="M68.052,5.808A9.033,9.033,0,0,0,59.645,0H17.282a9.032,9.032,0,0,0-8.4,5.8L.118,28.794a1.8,1.8,0,0,0-.118.64V51.013A9,9,0,0,0,8.987,60H67.941a9,9,0,0,0,8.987-8.987V29.434a1.8,1.8,0,0,0-.118-.64ZM12.238,7.08a5.42,5.42,0,0,1,5.044-3.485H59.646a5.419,5.419,0,0,1,5.045,3.489l7.823,20.534H52.989a1.8,1.8,0,0,0-1.7,1.22l-.514,1.514a12.973,12.973,0,0,1-24.569,0l-.515-1.514a1.8,1.8,0,0,0-1.7-1.22H4.413ZM73.333,51.012A5.4,5.4,0,0,1,67.941,56.4H8.987a5.4,5.4,0,0,1-5.392-5.392v-19.8H22.7l.1.295a16.568,16.568,0,0,0,31.377,0l.1-.295H73.333Zm0,0" fill="#fff"/>
  <path id="Path_482" data-name="Path 482" d="M143.207,67.093a1.8,1.8,0,0,0,2.471.028l16.381-15.143a1.8,1.8,0,0,0-2.44-2.638L144.486,63.328l-7.731-7.484a1.8,1.8,0,0,0-2.5,2.583Zm0,0" transform="translate(-109.682 -40.099)" fill="#fff"/>
</svg>
