<?xml version="1.0" standalone="no"?><!DOCTYPE svg PUBLIC "-//W3C//DTD SVG 1.1//EN" "http://www.w3.org/Graphics/SVG/1.1/DTD/svg11.dtd"><svg t="1608958237494" class="icon" viewBox="0 0 1024 1024" version="1.1" xmlns="http://www.w3.org/2000/svg" p-id="2489" xmlns:xlink="http://www.w3.org/1999/xlink" width="32" height="32"><defs><style type="text/css"></style></defs><path d="M863.88 687.244l-85.762-12.497-38.057-77.809c-2.272-4.543-9.087-4.543-10.787 0l-38.057 77.809-85.762 12.497c-5.11 0.567-7.953 7.953-3.41 11.358l61.912 60.207-14.202 85.762c-1.705 5.677 4.543 10.22 9.087 7.382l76.109-40.324 76.109 40.324c4.543 2.272 10.225-1.705 9.087-7.382l-14.197-85.762 61.341-60.207c4.543-3.977 2.272-10.22-3.41-11.358zM734.383 960.436c-126.658 0-230.594-103.936-230.594-230.594s103.936-230.599 230.594-230.599c126.658 0 230.594 103.941 230.594 230.599S861.041 960.436 734.383 960.436z m0-518.556c-159.033 0-287.958 128.93-287.958 287.963 0 159.028 128.925 287.958 287.958 287.958s287.958-128.93 287.958-287.958c0-158.466-128.925-287.963-287.958-287.963zM57.365 817.309V126.661c0-38.057 29.532-69.294 66.451-69.294h581.602c36.919 0 66.451 31.237 66.451 69.294V364.07h57.364V126.661C829.233 56.8 773.574 0.003 705.418 0.003H123.816C55.66 0.003 0.001 56.8 0.001 126.661v690.648c0 69.861 55.659 126.658 123.815 126.658h282.281v-57.364H123.816c-36.919-0.572-66.451-31.242-66.451-69.294z m599.206-582.168c0-15.902-13.063-28.965-28.965-28.965H201.627c-15.902 0-28.965 13.063-28.965 28.965s13.063 28.965 28.965 28.965h425.979c15.902 0 28.965-13.063 28.965-28.965z m-167.55 166.983c0-15.902-13.063-28.965-28.965-28.965H206.74c-15.902 0-28.965 13.063-28.965 28.965s13.063 28.965 28.965 28.965h253.316c15.902 0 28.965-13.063 28.965-28.965z m-282.28 139.152c-15.902 0-28.965 13.063-28.965 28.965s13.063 28.965 28.965 28.965h102.236c15.902 0 28.965-13.063 28.965-28.965s-13.063-28.965-28.965-28.965H206.741z" p-id="2490" fill="#FFFF"></path></svg>
