<?xml version="1.0" standalone="no"?><!DOCTYPE svg PUBLIC "-//W3C//DTD SVG 1.1//EN" "http://www.w3.org/Graphics/SVG/1.1/DTD/svg11.dtd"><svg t="1606964819437" class="icon" viewBox="0 0 1228 1024" version="1.1" xmlns="http://www.w3.org/2000/svg" p-id="3149" width="38.375" height="32" xmlns:xlink="http://www.w3.org/1999/xlink"><defs><style type="text/css"></style></defs><path d="M832 0q79.333333 0 135.666667 56.333333T1024 192v640q0 79.333333-56.333333 135.666667T832 1024h-125.333333V627.333333h132.666666l20-154.666666h-152.666666V374q0-37.333333 15.666666-56t61-18.666667l81.333334-0.666666V160.666667q-42-6-118.666667-6-90.666667 0-145 53.333333T546.666667 358.666667v114H413.333333v154.666666h133.333334v396.666667H192q-79.333333 0-135.666667-56.333333T0 832V192Q0 112.666667 56.333333 56.333333T192 0h640z" p-id="3150" fill="#ffffff"></path></svg>