<?xml version="1.0" standalone="no"?><!DOCTYPE svg PUBLIC "-//W3C//DTD SVG 1.1//EN" "http://www.w3.org/Graphics/SVG/1.1/DTD/svg11.dtd"><svg t="1608565091701" class="icon" viewBox="0 0 1024 1024" version="1.1" xmlns="http://www.w3.org/2000/svg" p-id="4741" xmlns:xlink="http://www.w3.org/1999/xlink" width="32" height="32"><defs><style type="text/css"></style></defs><path d="M63.93 213.29h896.14v597.43H63.93V213.29z" fill="#00458F" p-id="4742"></path><path d="M960.07 422.39H601.61v-209.1H422.39v209.1H63.93v179.23h358.46v209.1h179.23v-209.1h358.46c-0.01-0.01-0.01-179.23-0.01-179.23z" fill="#FFFFFF" p-id="4743"></path><path d="M960.07 741.64L166.61 213.29H63.93v69.08l793.46 528.35h102.68v-69.08z" fill="#FFFFFF" p-id="4744"></path><path d="M63.93 741.64l793.46-528.35h102.68v69.08L166.61 810.71H63.93v-69.07z" fill="#FFFFFF" p-id="4745"></path><path d="M960.07 459.73h-395.8V213.29H459.73v246.44H63.93v104.55h395.8v246.44h104.55V564.27h395.8c-0.01 0-0.01-104.54-0.01-104.54z" fill="#CC3440" p-id="4746"></path><path d="M960.07 808.85v-46.67L719.23 601.61h-70.94l311.78 207.24z m0-595.56h-70.94L601.61 403.72v16.8h44.81l313.65-207.23zM375.71 601.61L63.93 808.85v1.87h67.21l289.38-192.3v-16.8h-44.81v-0.01zM63.93 213.29v46.67l242.71 162.43h70.94L63.93 213.29z" fill="#CC3440" p-id="4747"></path></svg>