<?xml version="1.0" standalone="no"?><!DOCTYPE svg PUBLIC "-//W3C//DTD SVG 1.1//EN" "http://www.w3.org/Graphics/SVG/1.1/DTD/svg11.dtd"><svg t="1608966412610" class="icon" viewBox="0 0 1024 1024" version="1.1" xmlns="http://www.w3.org/2000/svg" p-id="8207" xmlns:xlink="http://www.w3.org/1999/xlink" width="32" height="32"><defs><style type="text/css"></style></defs><path d="M984.672907 39.335887l-34.126332-34.126332a17.046103 17.046103 0 1 0-24.127317 24.127317L948.481932 51.399545l-85.31583 85.31583H750.788092c-4.538802 0-8.855783 1.808696-12.063658 4.999507L656.94068 223.498636l-13.531091-13.53109c-23.598358-23.581295-51.718456-23.581295-75.316814 0l-375.389649 375.389649C170.640452 607.419868 170.640452 630.250384 170.640452 648.610351c0 15.698113 0 27.062181-12.063658 39.125839l-102.378995 102.378995C53.945461 792.367523 34.135125 812.843322 34.135125 836.305175c0 23.461853 19.810336 43.937652 22.062674 46.18999l119.442161 119.442162C177.892298 1004.206728 198.38516 1024 221.82995 1024c23.461853 0 43.937652-19.793272 46.18999-22.062673a16.994913 16.994913 0 0 0 3.617391-5.340771l92.448233-215.712543 118.691382 118.674318c40.79803 40.79803 85.708282 40.79803 126.506311 0l34.126332-34.126331a17.046103 17.046103 0 0 0 0-24.127317l-110.245115-110.228052C552.019273 715.446772 563.093267 692.001982 563.093267 665.673517a85.145198 85.145198 0 0 0-41.190482-72.808529l111.951431-143.961931c8.207383 7.183593 16.756029 13.821164 25.680065 19.827399l-34.211648 59.277438c-0.528958-0.341263-1.074979-0.631337-1.603937-0.9726a17.046103 17.046103 0 1 0-18.803609 28.461361c5.750287 3.805086 11.671205 7.285972 17.592124 10.715668 0.119442 0.068253 0.187695 0.204758 0.307137 0.27301 0.136505 0.068253 0.290074 0.085316 0.409516 0.170632a355.374556 355.374556 0 0 0 85.452335 35.337817c0.204758 0.068253 0.358326 0.221821 0.563084 0.27301 0.37539 0.102379 0.716653 0.068253 1.092043 0.170632 29.655782 7.797867 60.369481 12.029532 91.595074 12.046595H801.97759a17.063166 17.063166 0 0 0 17.063166-17.063166v-102.378995a17.063166 17.063166 0 0 0-17.063166-17.063166c-54.823952 0-106.457092-19.963904-147.08449-56.120753l41.105166-52.844624a17.063166 17.063166 0 1 0-26.925675-20.953568l-122.513531 157.510084L484.841589 443.85236 656.94068 271.753269l47.657422 47.657423a17.046103 17.046103 0 0 0 24.127317 0l153.551429-153.568493h0.034127l102.361932-102.378996a17.046103 17.046103 0 0 0 0-24.127316z m-295.534033 446.423609a252.534855 252.534855 0 0 0 30.252993 12.712058l-17.694503 66.051515a321.640677 321.640677 0 0 1-46.787201-19.503198l34.228711-59.260375zM784.914424 579.914045a326.844942 326.844942 0 0 1-50.216897-6.705824l17.728629-66.119768c10.681542 2.081706 21.482526 3.753896 32.488268 4.453486v68.372106zM528.966936 665.673517c0 16.960787-7.593109 31.788678-20.219852 40.968661l-42.367841-42.384904 34.382279-44.1936A51.070055 51.070055 0 0 1 528.966936 665.673517z m-46.974896-77.074321a17.131419 17.131419 0 0 0-1.092043 1.39918l-50.728792 65.198357a17.063166 17.063166 0 0 0 1.416243 22.540442L607.218614 853.368341l-22.062673 22.062674c-27.437571 27.420508-50.814108 27.420508-78.251679 0l-136.505327-136.505327a17.046103 17.046103 0 0 0-27.744708 5.340771L241.708538 979.8064c-5.426087 4.641181-14.077112 10.084331-19.878588 10.084331-6.688761 0-17.148482-7.234782-22.062674-12.063658L80.376305 858.419038C75.496239 853.47072 68.261457 842.993936 68.261457 836.305175s7.234782-17.148482 12.063658-22.062673l102.378996-102.378995C204.766784 689.800833 204.766784 666.98738 204.766784 648.610351c0-15.698113 0-27.062181 12.063658-39.12584L409.524775 416.790179l115.927149 115.927149-43.459884 55.881868zM460.714272 419.725044L433.652091 392.662863l158.568001-158.568001c10.374405-10.357342 16.687776-10.357342 27.062181 0l13.53109 13.531091L460.714272 419.725044z m255.947488-136.505327L681.067996 247.625953l76.784247-76.784247h71.187528L716.66176 283.219717z" fill="#fff" p-id="8208"></path></svg>
