<svg id="gun" xmlns="http://www.w3.org/2000/svg" width="76.703" height="51.988" viewBox="0 0 76.703 51.988">
  <path id="Path_587" data-name="Path 587" d="M92.393,150.762,82.23,127.387a5.962,5.962,0,0,1,2.8-7.711l3.034-1.517A1.3,1.3,0,0,0,88.784,117v-9.1a1.3,1.3,0,0,0-1.3-1.3h-5.2V104h-2.6v2.6H22.5V104H19.9v2.6H17.3a1.3,1.3,0,0,0-1.3,1.3v10.4a5.2,5.2,0,0,0,5.2,5.2H43.121l-.51,4.078a5.621,5.621,0,0,0,5.578,6.32H63.469l8.511,21.278a1.3,1.3,0,0,0,1.207.817H88.966a3.737,3.737,0,0,0,3.427-5.226ZM69.288,109.2v3.9h2.6v-3.9h2.6v3.9h2.6v-3.9h2.6v3.9h2.6v-3.9h3.9v6.5H18.6v-6.5ZM18.6,118.3H34.2v2.6h-13A2.6,2.6,0,0,1,18.6,118.3Zm29.591,13a3.022,3.022,0,0,1-3-3.4l.55-4.4h9.546c.052,0,.1,0,.154.006a6.132,6.132,0,0,1-4.6,3.918l.51,2.549a8.856,8.856,0,0,0,6.638-5.828,5.917,5.917,0,0,1,2.82,3.09l1.625,4.063Zm41.727,21.581a1.125,1.125,0,0,1-.951.514h-14.9L63.218,126.266a8.5,8.5,0,0,0-7.931-5.37H36.8v-2.6H64.089v2.6h2.6v-2.6h15.7a8.553,8.553,0,0,0-2.542,10.127L90.009,151.8a1.125,1.125,0,0,1-.092,1.077Z" transform="translate(-16 -104)" fill="#fff"/>
  <path id="Path_588" data-name="Path 588" d="M424,376h2.6v2.6H424Z" transform="translate(-357.715 -331.81)" fill="#fff"/>
</svg>
