<?xml version="1.0" standalone="no"?><!DOCTYPE svg PUBLIC "-//W3C//DTD SVG 1.1//EN" "http://www.w3.org/Graphics/SVG/1.1/DTD/svg11.dtd"><svg t="1606906206054" class="icon" viewBox="0 0 1102 1024" version="1.1" xmlns="http://www.w3.org/2000/svg" p-id="4880" width="34.4375" height="32" xmlns:xlink="http://www.w3.org/1999/xlink"><defs><style type="text/css"></style></defs><path d="M1083.089526 459.224615c25.521231 21.188923 26.230154 41.905231 2.126769 62.385231-13.784615 10.555077-28.750769 23.552-44.898461 39.069539l-50.648616 48.04923-52.224 49.073231c-17.171692 16.147692-33.083077 30.247385-47.497846 42.220308-15.832615 12.603077-29.459692 18.983385-40.802461 18.983384-11.421538 0-17.092923-8.428308-17.092923-25.363692 1.417846-9.846154 1.575385-22.055385 0.551384-36.942769a553.984 553.984 0 0 1-1.575384-37.966769c0-11.972923-4.096-19.377231-12.36677-22.212923a93.262769 93.262769 0 0 0-29.932307-4.17477H684.202142c-23.394462 0-48.049231-0.157538-73.80677-0.551384-25.836308-0.315077-50.491077-0.551385-73.885538-0.551385H431.195372a113.427692 113.427692 0 0 1-18.116923-1.575384 42.692923 42.692923 0 0 1-17.565538-6.852924 36.864 36.864 0 0 1-12.366769-14.808615 55.296 55.296 0 0 1-4.726154-24.260923c0-13.390769-0.078769-29.144615-0.472616-47.497846a733.341538 733.341538 0 0 1 0.551385-48.600616c0-18.904615 4.489846-31.980308 13.390769-39.069538 8.979692-7.010462 23.473231-10.24 43.401846-9.452308H529.341834c22.055385 0 45.686154 0.157538 70.734769 0.472616 25.206154 0.393846 49.073231 0.551385 71.837539 0.551384h101.29723c17.171692 0.787692 31.822769-0.708923 43.874462-4.174769 12.051692-3.544615 18.116923-11.342769 18.116923-23.236923 0-9.846154 0.315077-20.952615 1.024-33.319385a605.735385 605.735385 0 0 0 1.024-33.240615c0-16.147692 4.253538-26.387692 12.918154-30.562462 8.664615-4.253538 19.456-1.102769 32.531692 9.452308l46.001231 39.620923c17.801846 15.36 35.524923 30.798769 53.169231 46.473846l53.248 46.946462c17.565538 15.517538 33.555692 29.144615 48.04923 41.196308zM638.831065 767.054769h128.157538v90.348308c0 23.236923-3.465846 43.480615-10.318769 60.652308a118.468923 118.468923 0 0 1-27.411692 42.299077 107.913846 107.913846 0 0 1-39.778462 24.260923 146.510769 146.510769 0 0 1-48.521846 7.876923H131.242142a131.229538 131.229538 0 0 1-90.427077-37.96677 146.195692 146.195692 0 0 1-29.459693-42.220307A125.479385 125.479385 0 0 1 0.012603 858.348308V129.969231c0-16.935385 3.938462-33.083077 11.894154-48.600616a160.531692 160.531692 0 0 1 71.758769-70.183384C98.946757 3.702154 114.070449 0 129.194142 0h506.486153c17.959385 0 34.816 4.017231 50.727385 12.130462 15.753846 8.113231 29.774769 18.274462 41.826462 30.64123a141.784615 141.784615 0 0 1 28.356923 41.747693c6.931692 15.438769 10.397538 30.562462 10.397538 45.371077v83.968H638.831065l1.024-91.372308h-509.636923l-1.024 735.862154h509.636923v-91.372308z"  p-id="4881"></path></svg>
