<?xml version="1.0" standalone="no"?><!DOCTYPE svg PUBLIC "-//W3C//DTD SVG 1.1//EN" "http://www.w3.org/Graphics/SVG/1.1/DTD/svg11.dtd"><svg t="1606982008941" class="icon" viewBox="0 0 1024 1024" version="1.1" xmlns="http://www.w3.org/2000/svg" p-id="13505" xmlns:xlink="http://www.w3.org/1999/xlink" width="32" height="32"><defs><style type="text/css"></style></defs><path d="M0 0h1024v1024H0z" fill-opacity=".01" p-id="13506"></path><path d="M843.954087 468.813913c1.29113 6.767304 1.958957 13.779478 1.958956 20.925217v89.043479c0 21.926957-6.344348 42.362435-17.274434 59.592348-41.494261 147.812174-153.889391 263.568696-295.713392 303.63826a65.313391 65.313391 0 0 1-41.984 15.204174h-91.447652A65.580522 65.580522 0 0 1 333.913043 891.63687v-2.404174A65.580522 65.580522 0 0 1 399.493565 823.652174h91.447652a65.580522 65.580522 0 0 1 65.536 63.376696c91.046957-36.329739 165.331478-108.766609 207.382261-200.815305A111.437913 111.437913 0 0 1 623.304348 578.782609v-89.043479a111.304348 111.304348 0 0 1 160.122435-100.040347C734.608696 228.218435 591.693913 111.304348 422.956522 111.304348 254.21913 111.304348 111.304348 228.218435 62.486261 389.698783A111.304348 111.304348 0 0 1 222.608696 489.73913v89.043479a111.304348 111.304348 0 0 1-222.608696 0v-89.043479c0-7.145739 0.667826-14.157913 1.958957-20.925217C22.594783 243.2 203.197217 66.782609 422.956522 66.782609s400.361739 176.417391 420.997565 402.031304z m-56.32 150.550261C796.627478 585.193739 801.391304 549.175652 801.391304 512c0-12.377043-0.534261-24.620522-1.558261-36.708174A66.80487 66.80487 0 0 0 667.826087 489.73913v89.043479a66.782609 66.782609 0 0 0 119.830261 40.581565zM44.521739 512v66.782609a66.782609 66.782609 0 0 0 133.565218 0v-89.043479a66.782609 66.782609 0 0 0-132.006957-14.447304C45.056 487.379478 44.521739 499.622957 44.521739 512z m354.971826 356.173913a21.058783 21.058783 0 0 0-21.058782 21.058783v2.404174c0 11.642435 9.416348 21.058783 21.058782 21.058782h91.447652a21.058783 21.058783 0 0 0 21.058783-21.058782v-2.404174a21.058783 21.058783 0 0 0-21.058783-21.058783h-91.447652z" p-id="13507"></path></svg>
