<?xml version="1.0" standalone="no"?><!DOCTYPE svg PUBLIC "-//W3C//DTD SVG 1.1//EN" "http://www.w3.org/Graphics/SVG/1.1/DTD/svg11.dtd"><svg t="1606982045150" class="icon" viewBox="0 0 1024 1024" version="1.1" xmlns="http://www.w3.org/2000/svg" p-id="14364" xmlns:xlink="http://www.w3.org/1999/xlink" width="32" height="32"><defs><style type="text/css"></style></defs><path d="M372.224 620.501333a298.666667 298.666667 0 1 1 78.378667 43.52c12.544 9.173333 25.856 19.882667 40.021333 32.384 0 0 4.650667 18.858667 126.08-2.133333 121.386667-21.034667 154.453333 42.026667 154.453333 42.026667s18.602667 37.034667-24.405333 33.408c-43.008-3.626667-125.184 22.229333-125.184 22.229333l-68.181333 2.858667s17.450667 12.117333 70.912 13.738666c0 0 17.450667-11.733333 136.405333-22.613333 0 0 51.157333-15.786667 20.906667-60.672 0 0 137.173333-137.472 177.92-127.402667 40.661333 10.112 15.829333 36.010667-5.077334 63.104-20.906667 27.093333-129.408 152.832-129.408 152.832s-117.802667 64.298667-258.474666 104.32c0 0-23.637333 10.922667-51.925334 0l-243.370666-50.56s-32.938667-25.045333-56.576-15.36c-23.594667 9.728-85.632 40.448-85.632 40.448L42.666667 739.541333s115.2-98.133333 270.208-127.232c0 0 20.394667-5.802667 59.349333 8.192zM572.458667 217.6v-26.794667a20.181333 20.181333 0 0 0-40.405334 0v27.221334a115.114667 115.114667 0 0 0-50.858666 20.864c-20.906667 14.848-33.194667 36.437333-33.194667 59.605333 0 17.28 3.413333 30.165333 12.032 41.728 8.746667 12.245333 28.672 26.666667 53.205333 37.845333l49.322667 22.186667c22.357333 9.941333 34.432 17.493333 41.386667 26.453333 7.381333 8.917333 10.538667 18.858667 10.538666 31.872 0 14.933333-6.4 27.349333-18.090666 36.565334-11.434667 8.533333-27.562667 13.226667-46.592 13.226666-15.232 0-29.354667-4.053333-39.509334-11.562666-8.106667-5.973333-14.293333-17.365333-18.176-34.304l-0.213333-0.768a20.48 20.48 0 0 0-24.96-13.952 23.04 23.04 0 0 0-17.578667 25.6c3.328 21.632 12.245333 38.058667 26.837334 48.896 18.090667 13.44 36.053333 22.272 55.850666 25.557333v29.269333a20.181333 20.181333 0 0 0 40.405334 0v-30.165333c19.584-4.053333 38.016-13.226667 55.850666-26.453333 20.736-15.36 33.024-38.101333 33.024-61.866667 0-19.626667-5.418667-37.376-17.066666-51.626667-10.837333-14.208-28.714667-26.24-56.234667-38.784l-49.322667-22.186666c-19.072-8.832-31.445333-16.64-36.693333-22.997334-4.906667-6.357333-7.168-14.08-7.168-24.533333 0-13.226667 5.802667-25.514667 16.896-33.28 9.941333-7.381333 23.594667-11.093333 41.301333-11.093333 16.042667 0 29.653333 3.754667 39.296 11.392 5.418667 4.224 8.704 10.837333 9.813334 20.352a23.466667 23.466667 0 0 0 23.637333 20.394666c1.408 0 1.408 0 2.858667-0.170666a21.888 21.888 0 0 0 19.541333-24.32c-2.56-19.2-8.106667-27.690667-22.314667-42.794667-13.354667-14.165333-32.170667-19.541333-53.418666-21.333333z"  p-id="14365"></path></svg>
