<?xml version="1.0" standalone="no"?><!DOCTYPE svg PUBLIC "-//W3C//DTD SVG 1.1//EN" "http://www.w3.org/Graphics/SVG/1.1/DTD/svg11.dtd"><svg t="1606981823697" class="icon" viewBox="0 0 1024 1024" version="1.1" xmlns="http://www.w3.org/2000/svg" p-id="10574" xmlns:xlink="http://www.w3.org/1999/xlink" width="32" height="32"><defs><style type="text/css"></style></defs><path d="M480 64c-265.088 0-480 214.912-480 480s214.912 480 480 480c265.088 0 480-214.912 480-480s-214.912-480-480-480zM480 928c-212.064 0-384-171.936-384-384s171.936-384 384-384c212.064 0 384 171.936 384 384s-171.936 384-384 384zM512 512l0-128 128 0 0-64-128 0 0-64-64 0 0 64-128 0 0 256 128 0 0 128-128 0 0 64 128 0 0 64 64 0 0-64 128 0 0-256-128 0zM448 512l-64 0 0-128 64 0 0 128zM576 704l-64 0 0-128 64 0 0 128z" p-id="10575"></path></svg>
