<?xml version="1.0" standalone="no"?><!DOCTYPE svg PUBLIC "-//W3C//DTD SVG 1.1//EN" "http://www.w3.org/Graphics/SVG/1.1/DTD/svg11.dtd"><svg t="1606981855090" class="icon" viewBox="0 0 1024 1024" version="1.1" xmlns="http://www.w3.org/2000/svg" p-id="11378" xmlns:xlink="http://www.w3.org/1999/xlink" width="32" height="32"><defs><style type="text/css"></style></defs><path d="M945.408 512h-13.963636c0-231.261091-188.183273-419.444364-419.444364-419.444364-231.307636 0-419.490909 188.183273-419.490909 419.444364 0 231.284364 188.183273 419.444364 419.490909 419.444364 231.284364 0 419.444364-188.16 419.444364-419.444364h13.963636z m55.272727 0h13.963637c0 277.178182-225.489455 502.690909-502.644364 502.690909C234.798545 1014.690909 9.309091 789.201455 9.309091 512 9.309091 234.798545 234.798545 9.309091 512 9.309091 789.178182 9.309091 1014.644364 234.821818 1014.644364 512h-13.963637zM512 652.613818v-13.963636c28.090182 0 50.804364 22.807273 50.804364 50.967273a50.827636 50.827636 0 1 1-101.655273 0c0-28.16 22.760727-50.967273 50.850909-50.967273v13.963636z m-27.671273-90.042182h-13.963636V297.472a41.611636 41.611636 0 1 1 83.223273 0v265.099636a41.611636 41.611636 0 0 1-83.2 0h13.963636z" p-id="11379" ></path></svg>
