<svg width="300" height="262" viewBox="0 0 300 262" fill="none" xmlns="http://www.w3.org/2000/svg">
<g clip-path="url(#clip0)">
<path d="M84.0889 242.54C83.0318 243.236 81.9715 243.583 80.9105 244.277C78.0856 246.015 74.9105 247.753 72.0856 249.49C70.6713 250.185 69.2607 250.88 68.1998 251.923C66.4353 252.964 64.668 253.659 62.9035 254.702C59.7251 256.44 56.5462 258.177 53.7214 259.915C51.6035 260.261 48.7787 259.567 47.7194 257.482C46.66 255.745 47.3662 253.659 47.7194 251.923C48.4258 248.796 49.4848 246.015 50.1909 242.888C50.8974 239.76 51.9567 236.98 52.6628 233.854C53.0162 232.117 53.7214 230.726 54.0751 228.989C54.4287 227.599 55.1356 226.209 55.1356 224.471C55.4891 222.387 54.7816 220.301 54.0751 218.565C53.3694 217.174 52.31 216.132 51.2503 215.438C49.1317 213.7 47.0132 212.309 44.8942 210.573C43.1291 209.181 41.7165 207.792 40.304 206.75C38.8913 205.359 37.4791 204.317 36.0666 202.928C34.3011 201.19 32.5353 199.454 30.7702 197.716C29.3575 196.325 27.9448 194.936 26.8856 193.199C25.8262 191.808 24.414 190.419 23.3542 188.681C21.5888 186.248 19.8234 183.815 18.0579 181.384C17.7047 181.036 17.3515 180.342 16.9981 179.647C15.2326 176.867 13.4673 173.739 11.7019 170.96C10.642 168.875 9.58276 166.442 8.52376 164.357C8.17053 163.315 7.81756 162.62 7.46433 161.925C6.05182 158.798 4.99243 155.671 4.28637 152.543C3.22696 149.764 2.52089 146.636 2.16755 143.857C1.46149 140.729 1.10828 137.602 0.755056 134.822C-0.304224 125.788 -0.304224 116.753 1.10828 107.719C1.46149 104.939 2.16755 101.811 2.87412 99.0316C2.87412 96.252 3.58018 93.1244 4.63921 90.3447C5.69847 87.2176 6.75829 84.09 8.17053 81.3098V80.9624C9.58276 77.8353 10.9952 75.0556 12.7611 72.2755C16.2921 66.0213 20.5298 59.766 25.1201 54.2066C25.8262 53.512 26.1794 52.8166 26.8856 52.4691C29.0043 50.0369 31.123 47.6046 33.2417 45.5196C33.9477 44.8249 35.0072 43.7824 35.7136 43.0873C38.1853 41.0026 40.304 38.5705 42.7759 36.8328C43.482 36.1377 44.188 35.7903 44.8942 35.0955C50.5441 30.5782 56.5462 26.4083 62.9035 22.9336C65.3749 21.5438 67.8464 20.1538 70.3178 18.764C71.0253 18.4164 71.3787 18.0689 72.0856 17.7214C74.9105 16.3315 78.0856 14.9416 81.2645 13.5517C87.2678 11.1193 93.2711 9.03447 99.6284 7.29704C102.803 6.25462 106.336 5.55965 109.515 4.86472C112.339 4.16973 115.163 3.82226 117.635 3.1273C121.167 2.43237 124.347 2.08489 127.875 1.73741C133.526 0.694964 138.821 0 144.472 0H153.3C159.657 0 166.364 0.694964 172.721 1.38992C175.899 1.73741 178.724 2.43237 181.903 2.77985C185.083 3.47477 187.907 3.82226 191.083 4.51721C194.26 5.21219 197.085 5.90716 200.264 6.94958C206.621 8.68696 212.625 11.1193 218.625 13.5517C221.804 14.9416 224.629 16.3315 227.453 17.7214H227.806C230.632 19.4588 233.81 20.8487 236.636 22.5861C242.992 26.4083 249.345 30.5782 254.996 35.443L255.349 35.7903C258.175 38.2226 261 40.6551 263.825 43.4348C264.179 43.7824 264.886 44.4774 265.239 44.8249C267.356 46.9095 269.475 49.3423 271.592 51.4269C270.535 51.7744 269.121 52.4691 268.064 53.1645C266.65 53.8592 265.239 54.2066 263.825 54.9016C261 56.2915 257.821 57.6813 254.996 58.7242C252.171 59.766 249.699 61.1564 246.875 62.1987C246.521 62.1987 246.171 62.5462 245.817 62.5462C242.638 63.9365 239.814 65.3258 236.636 66.7162C230.632 69.4958 224.274 71.928 218.275 74.7082C212.271 77.4878 206.267 79.9205 200.264 82.6996C197.085 84.09 194.26 85.4798 191.083 86.8696C189.317 87.5645 187.2 88.6069 185.435 89.3024C184.375 89.6498 182.961 90.3447 181.903 90.6922C178.724 92.082 175.545 93.4718 172.721 94.8616C170.249 95.904 167.777 96.9464 165.308 98.3367C164.953 98.6842 164.246 98.6842 163.892 99.0316C160.713 100.422 157.888 101.811 154.714 103.201C148.711 105.981 142.353 108.413 136.349 111.193C131.761 113.278 127.172 115.363 122.224 117.448C120.814 118.143 119.4 118.491 117.989 118.838C114.811 119.186 111.632 118.838 109.161 117.795C108.453 117.448 107.75 117.1 107.043 116.753C104.571 115.015 102.453 113.278 99.9785 111.889C98.2145 110.498 96.0965 109.108 94.3315 107.719C93.2711 107.024 91.8573 105.981 90.7996 105.286C87.9753 103.201 84.7964 101.116 81.9715 99.0316C81.9715 99.0316 81.9715 99.0316 81.618 99.0316C79.5 97.6418 77.382 95.9045 75.2607 94.5142C74.5571 93.8193 73.4962 93.4718 72.4353 93.4718C69.2607 93.4718 66.4353 96.252 67.1395 99.378C69.6109 105.286 72.4353 111.193 75.2607 117.1C76.6751 120.228 78.0856 123.355 79.5 126.483C80.2069 127.525 80.5609 128.915 81.2645 129.957C81.9715 131.695 83.0318 133.432 83.7355 135.17C85.1498 137.949 86.5609 141.076 87.9753 143.857C89.0324 145.593 89.7393 147.679 90.7996 149.416C91.1531 150.458 91.8573 151.501 92.2107 152.89C93.978 156.018 95.0362 159.493 97.1569 162.273C98.2145 162.969 98.9215 163.663 99.9785 164.357C103.157 165.747 106.689 165.747 109.868 164.011C110.928 163.315 111.985 162.62 113.047 162.273C114.811 161.231 116.928 160.187 118.696 159.146C124.7 155.671 131.054 152.195 137.057 148.72C139.882 147.331 142.353 145.593 144.825 144.204C145.178 143.857 145.886 143.857 146.239 143.509C149.417 141.771 152.242 140.035 155.417 138.297C157.185 137.254 158.95 136.211 160.713 135.517C162.129 134.822 163.539 134.126 164.6 133.084C167.777 131.346 170.603 129.61 173.782 127.873C174.839 127.178 175.545 126.829 176.607 126.135C178.724 125.092 180.843 123.703 182.961 122.66C188.963 119.186 195.322 115.711 201.326 112.236C203.795 110.846 205.914 109.456 208.386 108.413C209.093 108.065 209.799 107.719 210.502 107.372C213.682 105.634 216.507 103.896 219.686 102.159C221.449 101.116 222.865 100.422 224.274 99.378C225.689 98.6842 227.1 97.6418 228.513 96.9464C234.871 93.4718 240.872 89.9967 246.875 86.5222C249.699 84.7849 252.524 83.3951 255.703 81.6578C256.057 81.6578 256.057 81.3098 256.411 81.3098C259.235 79.5725 262.414 77.8353 265.239 76.098C267.356 75.0556 269.475 73.6658 271.592 72.6235C272.654 72.2755 273.36 71.5811 274.063 71.2336C276.889 69.4958 279.714 67.7585 282.893 66.3687C283.953 68.4535 285.365 70.5382 286.425 72.6235C288.189 75.7505 289.603 78.8776 291.014 81.6578C291.367 82.6996 291.721 83.3951 292.075 84.4375C293.132 86.5222 293.839 88.6069 294.546 90.6922C295.606 93.4718 296.311 96.5995 297.017 99.378C297.725 102.506 298.431 105.286 298.781 108.413C299.134 111.541 299.488 114.321 299.842 117.448C299.842 120.575 300.197 123.355 299.842 126.483C299.842 129.61 299.488 132.39 299.134 135.517C298.781 138.643 298.078 141.424 297.725 144.551C297.017 147.679 296.311 150.458 295.606 153.239C293.839 159.493 291.014 165.747 288.189 171.308C285.011 177.562 281.127 183.815 276.535 189.377C275.832 190.419 274.772 191.461 274.063 192.157C272.3 194.241 270.535 195.978 268.767 198.062C267.356 199.454 266.296 200.842 264.886 201.886C263.117 203.624 261 205.359 258.881 207.097C257.821 208.14 256.763 208.835 255.703 209.877C252.879 211.963 250.407 214.047 247.582 216.132C247.228 216.479 246.875 216.827 246.521 217.174C243.697 219.26 240.521 221.344 237.343 223.082C236.282 223.777 234.871 224.471 233.81 225.166C232.046 226.209 230.278 226.904 228.513 227.946C225.689 229.336 222.511 230.726 219.333 232.117C217.922 232.811 216.507 233.158 215.097 233.854C213.328 234.548 211.918 235.244 210.153 235.591C207.329 236.633 204.149 237.676 201.326 238.371C198.147 239.413 194.967 240.109 191.788 240.804C188.963 241.498 186.492 241.845 183.668 242.54C183.668 242.54 183.315 242.54 182.961 242.54C179.785 243.236 176.961 243.583 173.782 243.931C170.603 244.277 167.777 244.625 164.6 244.973C161.422 245.321 158.597 245.321 155.417 245.321C152.242 245.321 149.417 245.321 146.239 245.321C143.061 245.321 140.235 244.973 137.057 244.973C133.879 244.625 131.054 244.625 127.875 243.931C125.05 243.583 122.579 243.236 119.754 242.888C118.696 242.888 117.989 242.54 116.928 242.54C114.457 242.193 112.339 241.498 109.868 241.15C106.689 240.455 103.511 239.76 100.685 238.718C97.86 238.023 94.3315 238.023 91.5076 239.413" fill="#22AC38"/>
</g>
<defs>
<clipPath id="clip0">
<rect width="300" height="261.818" fill="white"/>
</clipPath>
</defs>
</svg>
