<svg width="300" height="267" viewBox="0 0 300 267" fill="none" xmlns="http://www.w3.org/2000/svg">
<g clip-path="url(#clip0)">
<path fill-rule="evenodd" clip-rule="evenodd" d="M225.795 2.86877C216.861 -0.105798 208.073 -0.836159 199.467 1.00198C190.924 2.82645 183.357 7.00987 176.543 12.6517C168.245 19.5214 160.547 29.0076 152.999 40.2995C145.452 29.0076 137.754 19.5213 129.456 12.6517C122.641 7.00987 115.075 2.82645 106.532 1.00197C97.9253 -0.836158 89.138 -0.105798 80.2027 2.86877C60.819 9.3216 50.159 25.9091 49.9485 43.1541C49.8687 49.6937 51.2848 56.1953 54.1342 62.1747H24C10.7451 62.1747 0 72.906 0 86.1433V241.941C0 255.178 10.7451 265.909 24 265.909H276C289.255 265.909 300 255.178 300 241.941V86.1433C300 72.906 289.255 62.1747 276 62.1747H251.865C254.714 56.1953 256.13 49.6937 256.05 43.1541C255.839 25.9091 245.18 9.3216 225.795 2.86877ZM219.493 62.1747C228.511 57.8104 232.135 50.2501 232.052 43.4464C231.963 36.1234 227.623 28.7422 218.206 25.6075C212.741 23.7883 208.329 23.6199 204.485 24.4407C200.578 25.2753 196.444 27.3087 191.859 31.1047C184.242 37.4107 176.417 47.6667 167.486 62.1747H219.493ZM101.513 24.4407C97.6693 23.6199 93.2567 23.7883 87.792 25.6075C78.376 28.7422 74.036 36.1233 73.9467 43.4463C73.8633 50.25 77.488 57.8104 86.506 62.1747H138.513C129.581 47.6667 121.757 37.4108 114.139 31.1047C109.554 27.3088 105.421 25.2753 101.513 24.4407ZM112.179 86.1433H24V164.042H276V86.1433H181.823L216.001 116.105L210.001 134.081H192.001L147.001 88.2233L102 134.081H84L78 116.105L112.179 86.1433ZM24 194.003V241.941H276V194.003H24Z" fill="#FBC300"/>
</g>
<defs>
<clipPath id="clip0">
<rect width="300" height="266.667" fill="white"/>
</clipPath>
</defs>
</svg>
