<svg width="26" height="18" viewBox="0 0 26 18" fill="none" xmlns="http://www.w3.org/2000/svg">
<path d="M17.7988 11.7734C17.7988 11.4414 17.6934 11.168 17.4824 10.9531C17.2715 10.7344 16.9199 10.5391 16.4277 10.3672C15.9355 10.1914 15.5527 10.0293 15.2793 9.8809C14.3691 9.3926 13.9141 8.66992 13.9141 7.71289C13.9141 7.06445 14.1113 6.53125 14.5059 6.11328C14.9004 5.69531 15.4355 5.44727 16.1113 5.36914V4.0918H17.0488V5.38086C17.7285 5.47852 18.2539 5.76758 18.625 6.24805C18.9961 6.72461 19.1816 7.3457 19.1816 8.11133H17.7637C17.7637 7.61914 17.6523 7.23242 17.4297 6.95117C17.2109 6.66602 16.9121 6.52344 16.5332 6.52344C16.1582 6.52344 15.8652 6.625 15.6543 6.82812C15.4434 7.03125 15.3379 7.32227 15.3379 7.70117C15.3379 8.04102 15.4414 8.31445 15.6484 8.52148C15.8594 8.72461 16.2148 8.91797 16.7148 9.1016C17.2148 9.2852 17.6074 9.4551 17.8926 9.6113C18.1777 9.7676 18.418 9.9473 18.6133 10.1504C18.8086 10.3496 18.959 10.5801 19.0645 10.8418C19.1699 11.1035 19.2227 11.4102 19.2227 11.7617C19.2227 12.4219 19.0195 12.957 18.6133 13.3672C18.2109 13.7773 17.6484 14.0195 16.9258 14.0938V15.2363H15.9941V14.0996C15.2207 14.0137 14.625 13.7363 14.207 13.2676C13.793 12.7988 13.5859 12.1777 13.5859 11.4043H15.0098C15.0098 11.8965 15.1328 12.2773 15.3789 12.5469C15.6289 12.8164 15.9805 12.9512 16.4336 12.9512C16.8789 12.9512 17.2168 12.8438 17.4473 12.6289C17.6816 12.4141 17.7988 12.1289 17.7988 11.7734Z" fill="#E8BF34"/>
<path fill-rule="evenodd" clip-rule="evenodd" d="M1 13C3.20914 13 5 11.2091 5 9C5 6.79086 3.20914 5 1 5V7C2.10457 7 3 7.89543 3 9C3 10.1046 2.10457 11 1 11V13Z" fill="#E8BF34"/>
<path fill-rule="evenodd" clip-rule="evenodd" d="M24 2H2V6H0V2C0 0.89543 0.895431 0 2 0H24C25.1046 0 26 0.89543 26 2V16C26 17.1046 25.1046 18 24 18H2C0.89543 18 0 17.1046 0 16V12H2V16H24V2Z" fill="#E8BF34"/>
<path d="M0 6L1 7V6H0Z" fill="#E8BF34"/>
<path d="M0 12L1 11V12H0Z" fill="#E8BF34"/>
<path d="M8 4H7V5H8V4Z" fill="#E8BF34"/>
<path d="M8 7H7V8H8V7Z" fill="#E8BF34"/>
<path d="M8 10H7V11H8V10Z" fill="#E8BF34"/>
<path d="M8 13H7V14H8V13Z" fill="#E8BF34"/>
</svg>
