<svg width="300" height="243" viewBox="0 0 300 243" fill="none" xmlns="http://www.w3.org/2000/svg">
<g clip-path="url(#clip0)">
<path d="M279.701 173.96L297.134 62.079C298.946 50.7255 291.26 40.0428 279.964 38.2156L44.7315 0.266167C33.4359 -1.55582 22.8084 6.16939 20.9957 17.5228L12.6367 69.8457V173.31L279.701 173.96Z" fill="#146AA8"/>
<path d="M279.931 38.2169L213.12 27.4414C168.248 96.4536 95.7076 144.252 40.0781 173.378L279.667 173.962L297.1 62.0802C298.913 50.7262 291.227 40.0441 279.931 38.2169Z" fill="#126099"/>
<path d="M20.7168 64.6289H258.959C270.399 64.6289 279.675 73.9528 279.675 85.4517V220.801C279.675 232.301 270.399 241.624 258.959 241.624H20.7168C9.27603 241.624 0 232.301 0 220.801V85.4517C0 73.9528 9.27603 64.6289 20.7168 64.6289Z" fill="#4398D1"/>
<path d="M258.949 64.6289H254.805C205.914 151.872 114.558 211.717 58.7891 241.623H258.949C270.39 241.623 279.665 232.3 279.665 220.8V85.4517C279.665 73.9528 270.39 64.6289 258.949 64.6289Z" fill="#3E8CC7"/>
<path d="M77.6864 90.668H25.8945V132.314H77.6864V90.668Z" fill="#FDB62F"/>
<path d="M41.4323 106.271H25.8945V116.683H41.4323V106.271Z" fill="#FD7B2F"/>
<path d="M77.6863 106.271H62.1484V116.683H77.6863V106.271Z" fill="#FD7B2F"/>
<path d="M227.876 215.591C242.178 215.591 253.772 203.937 253.772 189.562C253.772 175.187 242.178 163.533 227.876 163.533C213.574 163.533 201.98 175.187 201.98 189.562C201.98 203.937 213.574 215.591 227.876 215.591Z" fill="#FDB62F"/>
<path d="M196.822 215.591C211.124 215.591 222.718 203.937 222.718 189.562C222.718 175.187 211.124 163.533 196.822 163.533C182.52 163.533 170.926 175.187 170.926 189.562C170.926 203.937 182.52 215.591 196.822 215.591Z" fill="#DE4C3C"/>
<path d="M51.7897 168.742H20.7148V179.153H51.7897V168.742Z" fill="#87CED9"/>
<path d="M103.579 168.742H72.5039V179.153H103.579V168.742Z" fill="#87CED9"/>
<path d="M155.364 168.742H124.289V179.153H155.364V168.742Z" fill="#87CED9"/>
<path d="M155.373 199.973H20.7148V210.384H155.373V199.973Z" fill="#87CED9"/>
<path d="M191.62 90.6465H181.262V111.47H191.62V90.6465Z" fill="#87CED9"/>
<path d="M212.354 90.6465H201.996V111.47H212.354V90.6465Z" fill="#87CED9"/>
<path d="M233.073 90.6465H222.715V111.47H233.073V90.6465Z" fill="#87CED9"/>
<path d="M253.772 90.6465H243.414V111.47H253.772V90.6465Z" fill="#87CED9"/>
</g>
<defs>
<clipPath id="clip0">
<rect width="300" height="242.857" fill="white"/>
</clipPath>
</defs>
</svg>
