<svg xmlns="http://www.w3.org/2000/svg" width="51.824" height="60" viewBox="0 0 51.824 60">
  <g id="play" transform="translate(-34.883 0)">
    <g id="Group_226" data-name="Group 226" transform="translate(34.883 0)">
      <path id="Path_475" data-name="Path 475" d="M82.81,23.076,47.373,1.232A8.194,8.194,0,0,0,34.883,8.21V51.7A8.28,8.28,0,0,0,43.059,60H43.1a8.223,8.223,0,0,0,4.248-1.278,2.34,2.34,0,1,0-2.437-3.994,3.59,3.59,0,0,1-1.823.593A3.636,3.636,0,0,1,39.562,51.7V8.21a3.515,3.515,0,0,1,5.356-2.994L80.356,27.06a3.515,3.515,0,0,1-.015,6L54.719,48.743a2.34,2.34,0,0,0,2.443,3.991L82.781,37.048a8.194,8.194,0,0,0,.03-13.972Z" transform="translate(-34.883 0)" fill="#fff"/>
    </g>
  </g>
</svg>
