<?xml version="1.0" standalone="no"?><!DOCTYPE svg PUBLIC "-//W3C//DTD SVG 1.1//EN" "http://www.w3.org/Graphics/SVG/1.1/DTD/svg11.dtd"><svg t="1608783158555" class="icon" viewBox="0 0 1166 1024" version="1.1" xmlns="http://www.w3.org/2000/svg" p-id="3236" xmlns:xlink="http://www.w3.org/1999/xlink" width="36.4375" height="32"><defs><style type="text/css"></style></defs><path d="M474.500414 35.098483c-18.043586 0-36.334345 9.216-54.801655 27.68331L242.617379 244.418207l-143.713103 0C40.642207 244.418207 0 289.262345 0 353.562483l0 291.133793c0 64.158897 37.005241 130.577655 98.904276 130.577655l126.128552 0 194.948414 189.369379c16.066207 16.066207 33.015172 24.258207 50.387862 24.258207 20.656552 0 38.488276-11.511172 48.904828-31.638069C526.159448 943.951448 529.655172 927.284966 529.655172 907.617103L529.655172 108.826483C529.655172 54.413241 499.923862 35.098483 474.500414 35.098483zM459.034483 904.015448l-195.089655-189.510621c-6.603034-6.426483-15.430621-9.957517-24.576-9.957517L98.904276 704.54731C85.415724 704.512 70.62069 673.191724 70.62069 644.696276l0-291.133793c0-17.478621 4.908138-38.347034 28.283586-38.347034l158.578759 0c9.533793 0 18.608552-3.848828 25.246897-10.699034L459.034483 123.692138 459.034483 904.015448zM707.407448 67.442759c-19.385379-0.459034-35.84 14.618483-36.475586 34.180414-0.706207 19.561931 14.583172 35.945931 34.074483 36.581517C900.378483 144.948966 1059.310345 312.955586 1059.310345 512.741517c0 199.891862-155.61269 361.860414-354.304 368.710621-19.49131 0.706207-34.745379 17.054897-34.074483 36.581517 0.670897 19.138207 16.313379 34.180414 35.239724 34.180414 0.423724 0 0.812138 0 1.235862 0C944.339862 952.249379 1129.931034 751.051034 1129.931034 512.741517 1129.931034 275.279448 940.385103 75.493517 707.407448 67.442759zM847.448276 509.846069c0-120.231724-91.948138-221.289931-209.284414-229.976276-19.385379-1.800828-36.334345 13.206069-37.782069 32.697379s13.170759 36.440276 32.626759 37.888C713.657379 356.457931 776.827586 426.478345 776.827586 509.846069s-63.170207 153.388138-143.819034 159.355586c-19.456 1.447724-34.074483 18.39669-32.626759 37.888 1.377103 18.608552 16.878345 32.80331 35.169103 32.80331 0.847448 0 1.765517-0.03531 2.612966-0.105931C755.500138 731.10069 847.448276 630.113103 847.448276 509.846069z" p-id="3237"></path></svg>