<svg id="target" xmlns="http://www.w3.org/2000/svg" width="76.246" height="76.246" viewBox="0 0 76.246 76.246">
  <g id="Group_295" data-name="Group 295" transform="translate(0)">
    <g id="Group_294" data-name="Group 294">
      <path id="Path_593" data-name="Path 593" d="M224.608,219.689h-2.46v-2.46a1.23,1.23,0,0,0-2.46,0v2.46h-2.46a1.23,1.23,0,1,0,0,2.46h2.46v2.46a1.23,1.23,0,0,0,2.46,0v-2.46h2.46a1.23,1.23,0,1,0,0-2.46Z" transform="translate(-182.796 -182.796)" fill="#fff"/>
      <path id="Path_594" data-name="Path 594" d="M75.016,36.893H67.607A29.548,29.548,0,0,0,39.353,8.639V1.23a1.23,1.23,0,1,0-2.46,0V8.639A29.548,29.548,0,0,0,8.639,36.893H1.23a1.23,1.23,0,1,0,0,2.46H8.639A29.548,29.548,0,0,0,36.893,67.607v7.409a1.23,1.23,0,1,0,2.46,0V67.607A29.548,29.548,0,0,0,67.607,39.353h7.409a1.23,1.23,0,1,0,0-2.46ZM57.8,39.353h7.348A27.087,27.087,0,0,1,39.353,65.147V57.8a1.23,1.23,0,0,0-2.46,0v7.348A27.087,27.087,0,0,1,11.1,39.353h7.348a1.23,1.23,0,1,0,0-2.46H11.1A27.087,27.087,0,0,1,36.893,11.1v7.348a1.23,1.23,0,1,0,2.46,0V11.1A27.087,27.087,0,0,1,65.147,36.893H57.8a1.23,1.23,0,1,0,0,2.46Z" transform="translate(0)" fill="#fff"/>
      <path id="Path_595" data-name="Path 595" d="M173.528,160a13.528,13.528,0,1,0,13.528,13.528A13.528,13.528,0,0,0,173.528,160Zm0,24.6A11.068,11.068,0,1,1,184.6,173.528,11.068,11.068,0,0,1,173.528,184.6Z" transform="translate(-135.404 -135.404)" fill="#fff"/>
    </g>
  </g>
</svg>
