<?xml version="1.0" standalone="no"?><!DOCTYPE svg PUBLIC "-//W3C//DTD SVG 1.1//EN" "http://www.w3.org/Graphics/SVG/1.1/DTD/svg11.dtd"><svg t="1606969605781" class="icon" viewBox="0 0 1024 1024" version="1.1" xmlns="http://www.w3.org/2000/svg" p-id="9078" width="32" height="32" xmlns:xlink="http://www.w3.org/1999/xlink"><defs><style type="text/css"></style></defs><path d="M102.4 0h819.2a102.7072 102.7072 0 0 1 102.4 102.4v819.2a102.7072 102.7072 0 0 1-102.4 102.4H102.4a102.4 102.4 0 0 1-102.4-102.4V102.4a102.4 102.4 0 0 1 102.4-102.4z m716.288 316.928a244.1216 244.1216 0 0 1-72.192 20.48 129.28 129.28 0 0 0 55.296-71.68 240.64 240.64 0 0 1-79.872 31.232 124.2112 124.2112 0 0 0-91.648-40.448 128.4096 128.4096 0 0 0-122.88 158.208 355.584 355.584 0 0 1-259.584-134.656 131.9936 131.9936 0 0 0 38.912 172.544 126.3616 126.3616 0 0 1-56.832-16.384 128.9216 128.9216 0 0 0 100.864 128.512 124.16 124.16 0 0 1-56.832 2.048 126.8736 126.8736 0 0 0 117.76 89.6 246.4256 246.4256 0 0 1-186.368 53.76A348.16 348.16 0 0 0 398.336 768a361.6768 361.6768 0 0 0 357.888-384 259.9936 259.9936 0 0 0 62.464-67.072z" fill="#ffffff" p-id="9079"></path></svg>