<svg id="up-arrow" xmlns="http://www.w3.org/2000/svg" width="60" height="60" viewBox="0 0 60 60">
  <g id="Group_297" data-name="Group 297">
    <g id="Group_296" data-name="Group 296">
      <path id="Path_596" data-name="Path 596" d="M30,0A30,30,0,1,0,60,30,30.034,30.034,0,0,0,30,0Zm0,57.391A27.391,27.391,0,1,1,57.391,30,27.421,27.421,0,0,1,30,57.391Z" fill="#fff"/>
      <path id="Path_597" data-name="Path 597" d="M111.409,64.7a1.353,1.353,0,0,0-2.123,0L96.242,82.965A1.3,1.3,0,0,0,97.3,85.027h6.522v15.651a2.605,2.605,0,0,0,2.607,2.611h.017c.284,0,7.805,0,7.807,0h.005a2.607,2.607,0,0,0,2.607-2.607V85.028h6.522a1.3,1.3,0,0,0,1.062-2.062Zm4.156,17.716a1.3,1.3,0,0,0-1.3,1.3v16.957h-6.6c-.459,0-.87,0-1.222.035V83.723a1.3,1.3,0,0,0-1.3-1.3H99.837l10.509-14.713,10.509,14.713Z" transform="translate(-80.348 -53.723)" fill="#fff"/>
    </g>
  </g>
</svg>
