<?xml version="1.0" standalone="no"?><!DOCTYPE svg PUBLIC "-//W3C//DTD SVG 1.1//EN" "http://www.w3.org/Graphics/SVG/1.1/DTD/svg11.dtd"><svg t="1606968139723" class="icon" viewBox="0 0 1024 1024" version="1.1" xmlns="http://www.w3.org/2000/svg" p-id="7062" xmlns:xlink="http://www.w3.org/1999/xlink" width="32" height="32"><defs><style type="text/css"></style></defs><path d="M598.286 744.571v-89.714q0-28.571-16.572-28.571-9.714 0-18.857 9.143v128q9.143 9.142 18.857 9.142 16.572 0 16.572-28z m105.143-69.714h37.714V655.43q0-29.143-18.857-29.143t-18.857 29.143v19.428z m-326.286-152v40h-45.714v241.714h-42.286V562.857H244.57v-40h132.572z m114.857 72v209.714h-38.286v-22.857q-22.285 25.715-43.428 25.715-18.857 0-24-16-3.429-9.143-3.429-30.858V594.857h37.714v154.286q0 13.714 0.572 14.857 0.571 8.571 8.571 8.571 11.429 0 24-17.714v-160H492z m144 63.429v83.428q0 29.715-4 41.715-6.857 24-30.286 24-20 0-38.857-23.429v20.571h-38.286V522.857h38.286v92Q581.143 592 601.714 592q23.429 0 30.286 24 4 12 4 42.286zM779.429 732v5.143q0 16.571-1.143 24.571-1.715 12.572-8.572 22.857Q754.286 807.43 724 807.43q-29.714 0-46.286-21.715-12-15.428-12-49.143v-73.714q0-33.714 11.429-49.143Q693.714 592 722.857 592t44.572 21.714q12 16 12 49.143v43.429h-76v37.143q0 29.142 19.428 29.142 13.714 0 17.143-14.857 0-0.571 2.857-4t2.857-9.428V732h38.857zM521.714 261.143v89.143q0 29.143-18.285 29.143t-18.286-29.143v-89.143q0-29.714 18.286-29.714t18.285 29.714zM826.286 668.57q0-101.142-10.857-148.571-5.715-25.143-24.572-42t-43.428-19.714q-77.715-8.572-235.429-8.572-157.143 0-234.857 8.572Q252 461.143 233.429 478t-24.286 42q-11.429 49.714-11.429 148.571 0 100.572 11.429 148.572 5.714 24.571 24.286 41.714t43.142 20Q354.857 887.43 512 887.43t235.429-8.572q24.571-2.857 43.142-20t24.286-41.714q11.429-48 11.429-148.572z m-431.429-372l51.429-169.142h-42.857l-29.143 111.428L344 127.43h-44.571l13.714 39.428 13.143 39.429q20 58.857 26.285 90.285V411.43h42.286V296.57zM560 342.857v-74.286q0-33.142-12-49.714-16.571-21.714-44.571-21.714-29.143 0-44.572 21.714-12 16.572-12 49.714v74.286q0 33.143 12 49.714 15.429 21.715 44.572 21.715 28 0 44.571-21.715 12-15.428 12-49.714z m103.429 68.572h38.285V200H663.43v161.714q-12.572 17.715-24 17.715-8.572 0-9.143-9.143-0.572-1.143-0.572-14.857V200H591.43v167.429q0 21.142 3.428 31.428 6.286 15.429 24.572 15.429 20.571 0 44-25.715v22.858z m287.428-173.715v548.572q0 68-48.286 116.285t-116.285 48.286H237.714q-68 0-116.285-48.286T73.143 786.286V237.714q0-68 48.286-116.285t116.285-48.286h548.572q68 0 116.285 48.286t48.286 116.285z" p-id="7063" fill="#ffffff"></path></svg>